<svg width="1920" height="768" viewBox="0 0 1920 768" fill="none" xmlns="http://www.w3.org/2000/svg">
<rect width="1920" height="768" fill="#E9D9FF"/>
<rect x="1357.71" width="199.091" height="199.091" fill="#84F0A8"/>
<rect x="1519.97" y="716.584" width="51.4159" height="51.4159" fill="#2650FF"/>
<rect x="374.227" y="576.524" width="37.0518" height="37.0518" fill="#C08EFF"/>
<rect x="1556.1" y="199.091" width="48.8047" height="48.8047" fill="white"/>
<rect x="241.465" y="384" width="132.762" height="132.762" fill="#9644FF"/>
<rect x="271.625" y="426.651" width="72.4383" height="47.4603" fill="white"/>
<path d="M269.574 426.651L307.848 456.656L346.122 426.651" stroke="#9644FF" stroke-width="6"/>
<rect x="1545.68" y="480.814" width="132.762" height="132.762" fill="#FFBB07"/>
<path d="M1602.91 535.604H1593.78V544.727H1602.91V535.604Z" fill="white"/>
<path d="M1617.78 535.604H1608.65V544.727H1617.78V535.604Z" fill="white"/>
<path d="M1632.66 535.604H1623.53V544.727H1632.66V535.604Z" fill="white"/>
<path d="M1575.84 511.108V569.983H1585.94V583.282H1595.76L1611.97 569.983H1650.32V511.108H1575.84ZM1641.18 560.859H1608.76L1595.14 572.041V560.859H1585.03V520.232H1641.25L1641.18 560.859Z" fill="white"/>
<rect x="289.852" y="154.962" width="105.844" height="105.844" fill="#00D1AE"/>
<path d="M346.631 219.478H338.902V227.206H346.631V219.478Z" fill="white"/>
<path d="M364.475 180.832H356.746V242.665H364.475V180.832Z" fill="white"/>
<path d="M357.242 173.103H321.07V180.82V242.652H364.477V173.115H357.242V173.103ZM357.242 235.702H328.799V180.844H357.242V235.702Z" fill="white"/>
<path d="M364.475 173.103H356.746V180.832H364.475V173.103Z" fill="white"/>
<path d="M356.746 180.832V188.561V196.29V204.019V211.749H364.475V204.019V196.29V188.561V180.832H356.746Z" fill="white"/>
</svg>
